<?xml version="1.0" encoding="UTF-8" standalone="no"?>
<svg xmlns="http://www.w3.org/2000/svg" xmlns:xlink="http://www.w3.org/1999/xlink"
     viewBox="0 0 1024 1024" width="1024" height="1024">
  <defs>
    <path id="scriptCurve" d="M 131 690 A 420 420 0 0 0 893 690"/>
  </defs>

<g transform="translate(0.000000,1024.000000) scale(0.100000,-0.100000)"
fill="#FFFFFF" stroke="none">
<path d="M4765 9065 c-264 -28 -463 -66 -685 -130 -565 -165 -1021 -417 -1480
-821 -478 -420 -873 -1025 -1071 -1639 -85 -266 -121 -422 -160 -696 -26 -185
-37 -631 -20 -805 91 -911 481 -1699 1153 -2331 514 -483 1158 -814 1866 -957
448 -91 970 -97 1429 -15 153 27 471 108 598 153 1136 397 2010 1293 2358
2416 189 611 207 1343 47 1975 -228 901 -776 1683 -1545 2207 -505 344 -1069
557 -1675 633 -176 23 -646 28 -815 10z m895 -158 c301 -46 546 -111 811 -217
1178 -470 2047 -1541 2247 -2770 40 -243 47 -331 46 -620 0 -360 -16 -509 -89
-815 -66 -275 -134 -464 -260 -720 -173 -352 -376 -638 -653 -919 -584 -591
-1334 -962 -2168 -1071 -141 -18 -475 -35 -584 -29 -273 14 -411 29 -587 64
-934 185 -1729 690 -2290 1455 -522 711 -737 1596 -618 2535 49 384 156 731
340 1105 192 390 406 687 706 982 490 483 1049 797 1694 953 334 81 517 100
930 95 269 -3 332 -6 475 -28z"/>
<path d="M4474 8092 c-127 -159 -367 -409 -471 -490 -43 -33 -120 -93 -171
-133 l-92 -71 -163 55 c-89 31 -177 62 -195 69 l-32 12 -368 -365 c-347 -345
-463 -453 -818 -765 -82 -72 -162 -143 -179 -159 l-30 -27 40 23 c96 54 1159
823 1325 959 25 20 28 20 95 5 39 -9 107 -27 152 -41 44 -13 92 -25 105 -26
18 -2 90 53 293 222 247 207 336 281 470 392 77 64 195 108 195 74 0 -9 39
-58 86 -109 108 -115 229 -254 364 -421 58 -71 149 -182 203 -247 85 -103 97
-121 87 -138 -5 -11 -50 -48 -98 -82 -48 -34 -116 -85 -152 -114 -224 -179
-488 -319 -1215 -645 -77 -35 -142 -65 -145 -68 -13 -13 123 14 280 54 513
133 995 305 1142 409 72 51 -246 -265 -457 -454 -88 -79 -194 -174 -235 -210
-41 -37 -122 -107 -180 -156 -58 -48 -109 -92 -115 -98 -16 -16 15 3 55 33 19
15 162 122 318 238 450 338 504 383 832 710 168 167 363 359 435 426 169 157
232 229 247 279 7 22 14 34 16 26 13 -40 197 -239 386 -418 137 -129 314 -268
424 -332 85 -50 87 -51 69 -85 -40 -76 -205 -288 -472 -604 -122 -145 -169
-205 -190 -239 -11 -18 30 11 110 78 33 28 141 115 240 193 381 301 470 372
476 381 10 14 29 -27 29 -60 0 -15 -13 -89 -29 -163 -17 -74 -34 -171 -40
-215 -15 -116 -23 -461 -11 -449 5 5 45 86 88 179 44 94 132 277 197 407 l118
237 19 -24 c73 -93 387 -281 633 -379 l90 -35 -60 51 c-188 161 -540 538 -754
804 l-73 91 -69 7 c-275 25 -573 168 -825 396 -120 108 -247 250 -314 349 -30
44 -57 81 -61 81 -5 0 -179 -148 -333 -284 l-67 -59 -42 13 c-95 28 -142 66
-313 250 -48 52 -122 131 -163 176 -42 44 -188 200 -325 347 -137 147 -252
267 -255 267 -3 0 -52 -58 -107 -128z"/>
<path d="M4925 5100 c-115 -13 -268 -39 -353 -61 -63 -16 -416 -165 -683 -287
l-87 -40 -273 -22 c-397 -31 -509 -45 -665 -85 -129 -33 -150 -42 -304 -129
-91 -52 -226 -128 -300 -169 -185 -103 -195 -109 -198 -135 -5 -33 44 -115
120 -198 37 -41 68 -79 68 -85 0 -25 -32 -68 -69 -94 -23 -15 -41 -32 -41 -36
0 -5 69 -9 153 -10 83 0 244 -4 357 -8 113 -5 208 -7 211 -5 4 2 1 32 -7 66
-68 320 155 608 471 608 172 0 361 -115 438 -266 60 -119 68 -203 31 -348 -26
-101 -168 -91 1324 -90 1187 1 1538 7 1558 27 3 2 0 54 -7 114 -9 82 -9 125
-1 174 68 384 541 520 825 236 119 -119 163 -271 134 -462 -8 -55 -13 -102
-11 -104 2 -2 98 10 215 27 158 23 219 35 238 49 16 13 51 78 102 194 98 220
100 229 62 277 -44 55 -49 67 -73 188 -21 105 -25 114 -66 159 -53 56 -60 79
-39 127 16 40 20 154 6 176 -5 9 -40 15 -102 19 -110 7 -124 2 -211 -77 l-57
-51 -163 26 c-90 14 -269 41 -398 60 -129 18 -433 63 -676 99 -893 133 -943
139 -1209 142 -132 1 -276 -2 -320 -6z m-63 -115 c-155 -52 -336 -140 -471
-230 -125 -84 -147 -102 -138 -112 15 -15 536 -23 822 -13 472 17 741 45 932
95 119 31 184 65 252 130 l56 53 110 -14 c235 -30 689 -102 675 -106 -8 -3
-85 -20 -170 -38 -296 -62 -1018 -249 -994 -257 10 -3 732 139 966 191 62 14
166 37 231 51 l119 26 308 -37 307 -38 -46 -21 c-59 -28 -78 -49 -61 -69 14
-17 82 -41 160 -56 154 -30 148 -27 164 -78 21 -67 39 -161 33 -176 -3 -7 -69
-35 -148 -62 -78 -26 -138 -49 -132 -51 5 -2 77 10 158 26 141 29 150 30 168
13 28 -25 19 -56 -67 -233 -86 -178 -58 -156 -241 -184 -159 -24 -145 -33
-145 93 0 165 -32 269 -116 383 -184 251 -612 290 -836 75 -127 -121 -177
-271 -159 -471 5 -49 7 -92 5 -94 -24 -25 -1249 -44 -2059 -31 -373 6 -681 13
-683 15 -2 2 3 35 12 74 20 87 20 148 1 229 -21 88 -65 171 -131 241 -110 120
-245 175 -424 175 -170 0 -273 -40 -390 -150 -116 -110 -160 -226 -160 -422
l0 -114 -31 6 c-17 3 -45 6 -62 6 -31 0 -31 0 -9 16 35 24 26 54 -40 135 -35
41 -79 94 -98 118 l-35 43 -115 -13 c-125 -14 -126 -13 32 -34 46 -6 48 -8
114 -103 90 -129 90 -132 22 -132 -30 0 -96 -3 -146 -6 l-92 -7 0 50 c0 60
-21 93 -134 203 l-76 74 43 12 c42 13 252 47 361 60 50 6 72 16 155 72 154
104 261 183 329 240 l62 53 338 24 c185 14 360 25 388 25 42 0 84 14 230 79
99 43 257 113 352 155 180 79 262 104 422 130 217 36 234 32 82 -19z m833 -5
c211 -25 360 -47 448 -66 38 -8 70 -14 72 -14 17 0 -15 -35 -50 -55 -184 -109
-610 -160 -1415 -171 l-395 -6 60 42 c216 148 485 259 701 289 100 14 383 5
579 -19z m2304 -139 c10 -6 12 -21 8 -50 -7 -54 -22 -71 -61 -71 -43 0 -149
20 -159 29 -5 5 15 29 44 55 47 42 55 46 103 46 28 0 57 -4 65 -9z m3 -222
l27 -51 -52 6 c-56 8 -122 35 -122 51 0 9 86 44 110 44 6 1 22 -22 37 -50z
m-5285 -193 l-177 -124 -92 -16 c-146 -27 -163 -29 -158 -23 3 2 41 25 85 49
44 25 143 80 220 123 126 71 227 112 279 114 11 1 -60 -55 -157 -123z"/>
<path d="M5585 4413 c-199 -10 -657 -49 -880 -74 -320 -36 -595 -73 -575 -77
18 -3 418 22 1157 74 l543 38 92 -18 c120 -24 234 -66 320 -117 87 -51 119
-97 127 -182 6 -58 7 -61 20 -38 18 32 9 107 -20 162 -48 95 -188 192 -320
224 -60 14 -276 18 -464 8z"/>
<path d="M6135 3973 c-789 -43 -1390 -82 -2035 -131 -79 -7 -44 -9 208 -16
506 -13 992 8 1442 64 265 33 561 77 568 85 5 5 -70 4 -183 -2z"/>
<path d="M3198 4351 c-144 -47 -237 -139 -280 -274 -47 -151 6 -328 128 -436
l44 -39 -107 -6 c-60 -4 -216 -11 -348 -16 -132 -6 -260 -13 -285 -17 -84 -12
-7 -23 233 -33 689 -29 1081 -34 2522 -34 1450 -1 2150 8 2725 35 390 18 355
30 -142 50 -181 7 -328 17 -328 21 0 4 4 8 9 8 5 0 32 21 60 46 35 31 63 70
88 122 37 73 38 80 38 182 0 100 -2 109 -34 175 -104 210 -359 295 -574 191
-257 -123 -314 -457 -113 -659 l51 -52 -1657 0 -1657 0 49 43 c31 27 61 66 80
105 108 221 29 457 -187 564 -68 33 -85 37 -167 40 -68 2 -105 -2 -148 -16z
m279 -76 c198 -88 268 -337 146 -514 -115 -166 -336 -209 -499 -98 -183 126
-212 381 -59 533 85 85 161 115 280 110 51 -2 88 -10 132 -31z m3818 0 c76
-39 132 -96 169 -175 50 -108 41 -234 -25 -334 -69 -104 -207 -172 -331 -163
-332 23 -448 458 -170 644 75 50 122 63 223 59 61 -2 89 -8 134 -31z"/>
</g>

  <text font-family="Kaushan Script, Brush Script MT, cursive" font-size="72" fill="#FFFFFF" text-anchor="middle">
    <textPath xlink:href="#scriptCurve" startOffset="50%">B&apos;s<tspan font-family="Satisfy, cursive" dx="38">&amp;</tspan><tspan dx="14">Dub Auto Detailing</tspan></textPath>
  </text>
</svg>
