<?xml version="1.0" standalone="no"?>
<!DOCTYPE svg PUBLIC "-//W3C//DTD SVG 20010904//EN"
 "http://www.w3.org/TR/2001/REC-SVG-20010904/DTD/svg10.dtd">
<svg version="1.0" xmlns="http://www.w3.org/2000/svg"
 width="2048.000000pt" height="2048.000000pt" viewBox="0 0 2048.000000 2048.000000"
 preserveAspectRatio="xMidYMid meet">
<metadata>
Created by potrace 1.16, written by Peter Selinger 2001-2019
</metadata>
<g transform="translate(0.000000,2048.000000) scale(0.100000,-0.100000)"
fill="#E01526" stroke="none">
<path d="M9725 18240 c-345 -20 -857 -100 -1219 -191 -316 -80 -734 -219
-1061 -353 -359 -148 -894 -437 -1203 -649 -904 -620 -1570 -1307 -2124 -2187
-196 -312 -428 -758 -563 -1085 -259 -625 -451 -1380 -510 -2005 -42 -443 -45
-1200 -6 -1512 146 -1165 512 -2162 1131 -3083 586 -870 1382 -1624 2295
-2172 590 -354 1231 -623 1915 -804 1113 -294 2391 -315 3490 -58 613 143 931
247 1400 457 2215 989 3784 3008 4144 5332 158 1017 95 2083 -180 3048 -422
1482 -1289 2773 -2502 3725 -917 719 -1947 1194 -3083 1421 -230 46 -555 92
-749 106 -199 14 -993 21 -1175 10z m1150 -270 c449 -26 1048 -146 1540 -307
1765 -579 3238 -1846 4080 -3508 322 -636 525 -1261 645 -1980 74 -444 75
-460 75 -1145 0 -775 -12 -908 -135 -1455 -130 -575 -272 -977 -535 -1510
-269 -544 -528 -939 -905 -1380 -1100 -1284 -2619 -2128 -4303 -2390 -388 -60
-1057 -96 -1420 -77 -435 24 -722 58 -1054 127 -1453 299 -2742 1009 -3731
2054 -516 545 -874 1052 -1182 1676 -368 744 -573 1500 -652 2405 -20 225 -16
909 5 1145 42 454 90 744 183 1115 244 975 795 2043 1433 2780 509 587 1118
1110 1716 1472 639 387 1238 634 1959 808 445 108 667 143 1096 173 113 8
1033 6 1185 -3z"/>
<path d="M9110 16493 c-209 -256 -258 -314 -381 -448 -205 -226 -560 -570
-704 -680 -71 -56 -194 -151 -273 -213 -79 -62 -146 -112 -150 -112 -11 0
-394 129 -574 194 -87 31 -162 56 -169 56 -6 0 -246 -232 -533 -516 -869 -862
-1052 -1033 -1876 -1759 -74 -65 -162 -143 -195 -174 l-60 -55 50 28 c86 50
501 338 850 591 227 165 923 670 1015 737 91 67 604 450 683 511 27 20 58 37
70 37 31 -1 190 -39 417 -100 l195 -53 42 24 c72 41 257 190 868 699 325 271
621 510 658 532 78 47 185 88 227 88 23 0 32 -7 46 -35 19 -40 102 -139 273
-325 158 -172 362 -411 651 -763 388 -472 478 -586 484 -614 4 -16 1 -34 -9
-49 -8 -13 -113 -96 -233 -185 -119 -89 -248 -188 -287 -219 -350 -285 -896
-573 -2193 -1159 -184 -83 -341 -156 -350 -162 -27 -17 75 -3 233 31 552 120
1404 380 1925 587 229 90 446 191 520 241 24 17 46 29 48 27 13 -13 -591 -608
-863 -850 -60 -54 -207 -185 -325 -290 -282 -251 -438 -387 -588 -513 -110
-93 -145 -127 -109 -106 40 24 1222 915 1367 1031 268 214 401 336 820 747
565 557 761 749 895 876 341 324 478 478 511 574 9 25 19 46 24 46 4 0 19 -18
34 -40 117 -177 701 -767 1015 -1026 141 -115 344 -266 438 -323 178 -110 212
-133 218 -151 19 -59 -218 -376 -828 -1108 -315 -379 -461 -562 -452 -570 6
-6 90 58 233 177 107 89 741 595 1092 871 80 63 171 136 203 163 31 27 63 47
71 44 22 -9 39 -91 32 -157 -4 -32 -29 -167 -56 -298 -27 -131 -56 -286 -64
-343 -22 -150 -38 -472 -34 -704 l3 -200 81 165 c45 91 119 244 164 340 90
190 517 1061 524 1068 3 2 33 -26 67 -63 103 -109 317 -259 597 -416 144 -81
468 -239 567 -277 44 -17 105 -40 135 -52 30 -12 51 -17 45 -12 -5 4 -59 51
-120 103 -335 287 -1062 1066 -1468 1574 l-96 121 -153 16 c-395 43 -785 195
-1183 461 -339 227 -729 614 -991 984 -52 73 -98 133 -101 133 -13 0 -381
-312 -648 -549 l-117 -105 -66 18 c-199 52 -289 128 -783 662 -625 674 -1247
1334 -1258 1334 -3 -1 -49 -53 -101 -117z"/>
<path d="M9960 10640 c-151 -8 -195 -14 -445 -56 -280 -47 -365 -72 -705 -212
-164 -67 -614 -263 -795 -345 -66 -30 -160 -73 -210 -95 l-90 -41 -470 -36
c-857 -66 -1071 -95 -1415 -192 -147 -41 -286 -105 -523 -241 -95 -54 -235
-134 -312 -177 -77 -43 -165 -92 -195 -110 -30 -17 -122 -69 -204 -116 -173
-98 -206 -124 -206 -167 0 -68 83 -205 216 -357 101 -115 144 -170 144 -184 0
-42 -69 -125 -168 -201 -28 -21 -40 -36 -34 -42 6 -6 194 -14 448 -19 242 -5
543 -13 669 -18 127 -4 236 -6 243 -3 16 5 15 41 -3 122 -22 97 -30 272 -16
360 73 471 448 803 906 803 242 0 476 -95 665 -270 119 -109 196 -230 251
-393 30 -87 33 -106 33 -220 1 -125 -17 -236 -50 -323 -32 -85 -15 -103 119
-120 132 -17 4657 -16 5052 1 243 11 347 20 360 34 2 2 -2 55 -8 118 -17 180
-15 423 5 495 42 152 104 269 201 379 77 87 163 150 282 207 153 72 210 84
405 83 149 -1 174 -3 253 -27 329 -100 585 -358 668 -672 30 -113 36 -323 15
-475 -9 -63 -16 -132 -16 -153 l0 -39 63 7 c220 24 683 99 750 121 30 10 56
27 72 48 47 61 264 534 315 686 27 81 25 108 -12 164 -108 159 -101 143 -153
383 -19 88 -42 177 -50 196 -8 20 -42 66 -75 104 -33 37 -69 87 -81 111 -19
38 -20 48 -9 85 33 115 41 176 38 275 -2 87 -6 106 -22 117 -27 20 -114 30
-261 30 -154 0 -166 -5 -288 -112 -43 -37 -95 -82 -115 -100 l-37 -31 -180 29
c-99 16 -238 38 -310 49 -172 25 -833 122 -1060 155 -99 14 -295 43 -435 65
-140 21 -320 48 -400 59 -80 11 -284 41 -455 66 -788 116 -1084 156 -1335 180
-193 18 -815 27 -1030 15z m-20 -145 c0 -10 -60 -35 -200 -83 -213 -74 -492
-200 -685 -310 -109 -62 -425 -275 -455 -307 -13 -14 -21 -28 -18 -31 19 -18
299 -26 948 -27 580 -1 785 2 1025 16 695 40 1096 88 1375 163 262 71 342 115
544 297 l64 58 264 -36 c145 -19 338 -46 429 -60 90 -14 225 -34 299 -45 74
-11 200 -32 280 -46 80 -14 162 -28 183 -31 21 -3 35 -9 30 -13 -4 -4 -51 -17
-103 -28 -52 -11 -151 -33 -220 -48 -230 -50 -833 -194 -1020 -244 -102 -27
-279 -74 -394 -104 -256 -69 -458 -128 -452 -133 5 -5 216 33 671 123 664 131
903 181 1597 333 l227 50 248 -30 c474 -56 908 -110 918 -113 6 -2 -25 -20
-67 -40 -127 -60 -162 -101 -120 -140 33 -29 172 -73 350 -110 192 -40 225
-53 247 -96 33 -63 94 -357 80 -381 -11 -18 -117 -62 -311 -129 -179 -62 -242
-89 -214 -89 20 -1 200 32 381 69 80 17 157 30 171 30 15 0 41 -12 58 -27 55
-46 44 -85 -146 -487 -84 -179 -133 -248 -187 -265 -39 -13 -419 -71 -462 -71
-67 0 -69 5 -77 242 -7 226 -20 302 -72 442 -36 96 -110 215 -188 306 -336
389 -1001 475 -1436 186 -139 -92 -289 -271 -349 -418 -72 -174 -91 -325 -74
-571 7 -99 9 -183 4 -188 -46 -46 -2089 -79 -3648 -60 -1027 13 -1592 24
-1599 32 -3 3 6 58 18 124 36 181 39 246 22 361 -39 258 -171 489 -379 659
-195 160 -401 227 -697 228 -229 1 -376 -31 -524 -115 -190 -107 -381 -314
-452 -489 -54 -133 -66 -208 -73 -464 -6 -232 -7 -240 -26 -237 -11 2 -62 9
-114 16 l-95 12 31 22 c45 32 48 54 20 115 -25 54 -45 81 -231 308 -60 74
-111 136 -113 138 -2 4 -251 -22 -352 -36 -65 -9 -33 -20 108 -37 66 -9 134
-22 150 -30 28 -15 73 -71 190 -239 104 -149 114 -183 59 -191 -18 -3 -112 -8
-208 -11 -96 -3 -205 -8 -241 -12 l-67 -6 -4 89 c-5 132 -20 157 -222 361 -93
95 -167 176 -163 179 21 21 407 92 732 134 44 6 102 18 129 26 90 30 642 417
859 602 l88 75 322 23 c676 48 896 63 1007 69 159 9 211 25 515 160 1088 482
1066 475 1695 574 64 10 120 13 120 6z m1040 -56 c197 -12 386 -32 670 -69
336 -45 679 -106 698 -124 3 -4 -9 -21 -26 -39 -191 -197 -875 -324 -1962
-366 -301 -12 -1489 -34 -1540 -29 -34 3 -33 4 85 84 460 310 1003 523 1410
554 123 9 429 4 665 -11z m4782 -305 c17 -16 19 -27 14 -72 -7 -63 -29 -120
-54 -138 -23 -18 -108 -17 -209 0 -112 20 -163 35 -163 47 0 22 125 140 174
165 46 23 59 25 134 21 62 -4 88 -10 104 -23z m0 -414 c26 -46 48 -88 48 -93
0 -21 -203 19 -270 53 -58 29 -66 45 -35 66 42 27 148 64 179 61 25 -2 36 -13
78 -87z m-9838 -161 c-26 -28 -198 -157 -429 -319 l-190 -133 -220 -39 c-121
-21 -229 -37 -240 -36 -19 3 22 27 450 269 320 181 532 275 624 278 24 1 24 1
5 -20z"/>
<path d="M11185 9323 c-22 -1 -143 -10 -270 -18 -768 -52 -1528 -127 -2278
-224 -119 -16 -270 -41 -275 -46 -3 -3 31 -2 74 0 285 17 498 30 1029 66 330
21 674 44 765 50 91 5 437 30 770 54 l605 44 116 -24 c310 -63 540 -147 708
-259 128 -85 180 -160 201 -291 7 -38 15 -86 20 -105 l7 -35 17 37 c31 72 15
195 -41 305 -58 116 -214 254 -383 340 -126 65 -224 92 -364 103 -111 9 -607
11 -701 3z"/>
<path d="M12335 8483 c-352 -15 -2017 -113 -2520 -148 -115 -8 -374 -26 -575
-40 -756 -52 -956 -67 -975 -75 -63 -24 1369 -33 1825 -11 557 26 1068 73
1660 151 453 59 760 109 760 122 0 8 -18 8 -175 1z"/>
<path d="M13985 9230 c-88 -14 -150 -35 -243 -80 -220 -106 -363 -282 -423
-520 -28 -111 -23 -297 11 -405 46 -146 94 -219 264 -402 l30 -33 -3172 0
-3171 0 97 98 c85 84 105 110 145 192 135 276 120 571 -41 806 -82 120 -223
233 -365 292 -108 45 -175 55 -344 50 -167 -5 -212 -17 -366 -95 -105 -54
-216 -153 -281 -251 -83 -126 -116 -227 -123 -383 -12 -256 79 -478 269 -653
75 -69 80 -75 57 -80 -13 -3 -139 -10 -279 -16 -808 -34 -1149 -56 -1167 -74
-26 -26 359 -45 1732 -88 568 -18 6605 -18 7380 0 1040 24 1834 57 1921 81 28
7 27 8 -16 14 -84 12 -304 26 -585 37 -332 12 -767 39 -775 47 -3 3 6 13 20
22 56 37 143 115 180 163 63 79 149 261 160 338 12 83 12 225 0 318 -11 81
-55 186 -118 278 -49 73 -159 180 -232 226 -68 43 -187 92 -260 107 -77 17
-233 22 -305 11z m-6992 -136 c34 -8 96 -32 137 -52 101 -49 230 -177 283
-279 99 -192 103 -422 11 -609 -115 -234 -355 -384 -614 -384 -123 0 -192 15
-295 65 -235 114 -377 323 -392 580 -7 117 14 214 68 325 35 69 59 102 133
175 117 116 231 177 371 199 54 8 236 -4 298 -20z m7227 16 c149 -17 274 -83
388 -205 76 -81 141 -198 168 -300 20 -80 20 -242 -1 -320 -61 -228 -233 -403
-473 -483 -65 -22 -96 -26 -202 -26 -104 -1 -138 3 -200 22 -174 54 -314 173
-394 334 -56 115 -76 196 -76 318 0 178 63 335 184 456 178 179 343 234 606
204z"/>
<path d="M15910 5913 c-60 -61 -83 -136 -84 -273 0 -84 5 -131 18 -174 55
-183 168 -293 280 -272 46 9 54 26 69 137 l12 91 44 -76 c115 -202 158 -393
115 -518 -21 -63 -70 -118 -114 -127 -48 -10 -47 -35 3 -39 78 -7 188 71 228
161 21 45 24 67 23 162 0 100 -4 120 -39 224 -23 69 -93 223 -180 395 -78 154
-144 287 -147 295 -7 23 -94 -29 -91 -54 1 -11 20 -72 42 -135 56 -161 76
-374 41 -438 -12 -23 -66 52 -95 132 -76 204 -85 430 -20 500 23 25 23 26 5
36 -37 20 -71 11 -110 -27z"/>
<path d="M4841 5887 c-12 -24 -21 -59 -21 -79 0 -33 2 -36 38 -43 20 -4 71
-23 112 -42 l75 -35 -110 -28 c-164 -43 -555 -184 -685 -248 l-35 -17 0 -85
c0 -73 4 -93 28 -142 126 -256 555 -383 728 -216 49 48 69 96 69 165 0 47 2
54 17 49 44 -17 132 -18 188 -2 73 22 160 102 170 160 12 61 0 140 -29 199
-56 115 -252 288 -411 363 -110 51 -110 51 -134 1z m418 -352 c106 -98 129
-185 67 -253 -34 -37 -35 -37 -113 -37 -110 1 -182 37 -292 147 -44 45 -80 83
-78 84 5 5 244 76 290 85 26 6 47 15 47 20 0 19 21 7 79 -46z m-509 -135 c0
-22 14 -41 67 -89 36 -34 90 -75 120 -92 49 -28 53 -33 53 -67 0 -124 -167
-195 -337 -144 -75 23 -171 78 -230 133 -47 43 -93 101 -93 118 0 7 34 28 75
48 98 46 328 132 338 126 4 -2 7 -17 7 -33z"/>
<path d="M15650 5479 c-33 -12 -59 -56 -76 -132 -15 -62 -21 -447 -8 -481 3
-9 2 -16 -3 -16 -12 0 -44 107 -73 240 -31 144 -37 157 -72 169 -37 13 -135
15 -142 3 -9 -14 30 -181 64 -277 42 -117 99 -240 144 -308 37 -55 87 -87 137
-87 20 0 21 4 15 78 -15 202 -18 448 -6 492 l13 45 21 -50 c66 -160 130 -235
199 -235 49 0 96 34 118 86 32 72 12 126 -24 64 -23 -39 -48 -38 -83 3 -55 65
-134 282 -134 369 0 31 -4 38 -19 38 -11 0 -25 2 -33 4 -7 3 -24 0 -38 -5z"/>
<path d="M14786 5400 c-77 -14 -76 -12 -76 -87 0 -140 64 -427 159 -711 66
-198 112 -292 169 -352 40 -41 54 -48 98 -54 84 -10 89 -3 45 62 -99 146 -207
438 -261 702 -24 117 -42 304 -38 385 3 58 2 60 -22 62 -14 0 -47 -3 -74 -7z"/>
<path d="M5745 5368 c-31 -54 -125 -147 -197 -194 -104 -69 -116 -104 -35
-104 96 0 241 55 320 121 32 27 32 27 19 74 -13 48 -58 126 -77 132 -6 2 -19
-11 -30 -29z"/>
<path d="M15007 5356 c-26 -7 -50 -15 -53 -18 -3 -3 7 -36 23 -74 31 -79 99
-154 139 -154 l24 0 0 130 0 130 -42 -1 c-24 0 -64 -6 -91 -13z"/>
<path d="M14522 4980 c-26 -11 -26 -11 11 -109 23 -62 91 -141 123 -141 20 0
21 7 28 108 3 59 7 116 9 127 2 18 -4 20 -73 22 -41 1 -85 -2 -98 -7z"/>
<path d="M15108 4983 c-36 -9 -35 -102 3 -210 26 -76 127 -262 160 -295 23
-24 36 -28 83 -28 60 0 76 12 53 38 -43 49 -129 294 -147 420 l-12 82 -62 -1
c-33 -1 -69 -3 -78 -6z"/>
<path d="M5550 4891 c-80 -25 -114 -59 -173 -176 -58 -114 -55 -113 -113 -84
-59 28 -164 37 -231 18 -27 -7 -62 -28 -84 -49 -32 -31 -39 -43 -39 -76 0 -21
9 -57 19 -80 25 -54 91 -87 176 -87 77 0 133 27 200 99 l50 53 41 -18 c64 -29
80 -10 29 33 l-40 35 60 61 c57 58 123 100 157 100 9 0 26 -8 38 -18 19 -16
21 -22 11 -40 -6 -12 -25 -29 -41 -37 -33 -17 -42 -55 -12 -55 25 1 104 38
130 62 19 18 22 32 22 90 0 38 -5 89 -11 113 -10 39 -16 46 -48 55 -41 11
-105 12 -141 1z m-314 -341 c25 -10 26 -11 10 -29 -21 -23 -97 -57 -148 -66
-55 -10 -108 2 -108 24 0 56 162 103 246 71z"/>
<path d="M14616 4594 c-19 -19 -22 -113 -5 -182 20 -80 117 -295 148 -326 20
-20 41 -29 72 -33 67 -6 74 5 44 63 -38 74 -96 310 -98 402 -1 42 -6 80 -12
84 -20 15 -133 9 -149 -8z"/>
<path d="M6620 4545 c-68 -22 -137 -81 -194 -166 l-51 -76 -100 -27 c-180 -50
-252 -83 -316 -145 -46 -45 -61 -67 -74 -114 -37 -128 23 -209 192 -259 66
-20 72 -24 67 -44 -15 -58 31 -94 120 -94 l55 0 -15 35 c-21 52 -19 85 7 85
46 0 201 42 206 57 12 30 -12 35 -90 19 -42 -9 -87 -16 -101 -16 l-25 0 16 48
c35 108 78 222 111 294 l35 78 71 20 c167 48 218 72 273 125 38 36 53 59 53
78 0 94 -112 141 -240 102z m138 -61 c30 -21 28 -37 -9 -68 -30 -25 -195 -83
-206 -72 -9 8 74 114 99 127 23 12 66 27 83 28 6 1 21 -6 33 -15z m-485 -371
c-14 -32 -44 -111 -67 -175 -24 -71 -45 -118 -53 -118 -26 0 -111 49 -132 76
-42 53 -17 130 59 180 36 24 193 93 212 94 4 0 -4 -26 -19 -57z"/>
<path d="M14389 4408 c-13 -11 -14 -29 -8 -108 17 -220 6 -406 -27 -477 -20
-41 -32 -39 -61 13 -64 113 -51 345 27 468 17 26 30 49 30 52 0 11 -72 34
-108 34 -57 0 -92 -44 -123 -155 -18 -64 -18 -253 0 -325 40 -159 146 -255
232 -210 43 24 87 167 89 295 l1 50 13 -40 c20 -62 53 -122 78 -139 35 -25 65
-19 108 20 l41 37 -30 18 c-62 38 -114 168 -147 373 l-17 106 -42 0 c-23 0
-48 -6 -56 -12z"/>
<path d="M13790 4381 c-37 -10 -50 -49 -63 -185 l-11 -124 -57 -24 -58 -23 20
-33 c23 -35 37 -39 77 -18 l27 14 18 -131 c20 -137 57 -282 83 -321 22 -34 70
-51 144 -51 47 0 74 5 93 18 34 22 93 137 83 162 -6 17 -8 16 -23 -6 -32 -48
-88 -99 -108 -99 -12 0 -30 9 -39 19 -42 46 -96 290 -96 432 l0 66 48 31 c26
17 56 40 67 52 17 18 17 22 4 36 -14 13 -21 12 -63 -12 -26 -14 -49 -25 -51
-23 -4 4 10 139 21 194 l6 35 -48 -1 c-27 -1 -60 -4 -74 -8z"/>
<path d="M7335 4156 c-68 -17 -109 -40 -156 -87 -28 -28 -39 -47 -39 -69 0
-33 22 -94 37 -103 5 -3 35 18 67 48 31 30 82 66 112 80 55 26 154 49 154 35
0 -10 -111 -131 -366 -402 -259 -273 -255 -267 -215 -355 44 -95 157 -177 280
-204 77 -16 242 -6 321 19 184 60 346 212 431 402 21 47 24 70 24 165 0 103
-2 114 -33 179 -98 207 -394 347 -617 292z m372 -136 c132 -61 198 -158 191
-281 -11 -195 -225 -431 -448 -492 -92 -26 -150 -29 -226 -13 -68 14 -166 55
-178 75 -19 30 351 398 581 578 l52 41 -25 39 c-14 21 -38 51 -53 67 l-26 28
35 -7 c19 -4 63 -19 97 -35z"/>
<path d="M12546 4014 c-160 -39 -312 -153 -354 -267 -12 -32 -22 -81 -22 -111
0 -44 4 -56 28 -79 15 -15 42 -30 60 -33 31 -6 32 -5 32 27 1 94 53 230 111
285 l29 28 0 -85 c0 -91 -12 -334 -31 -627 -11 -174 -11 -183 7 -203 51 -56
160 -85 263 -69 199 31 374 195 447 416 26 80 29 102 29 224 0 141 -10 189
-58 285 -48 97 -139 172 -249 207 -72 22 -205 23 -292 2z m298 -74 c26 -14 60
-38 74 -55 58 -69 95 -197 95 -330 0 -108 -17 -184 -64 -281 -65 -138 -172
-235 -300 -275 -90 -28 -97 -27 -104 25 -13 84 41 605 80 774 8 35 15 65 15
67 0 6 -100 25 -133 25 -28 0 -30 2 -16 15 8 9 47 27 85 41 91 33 195 30 268
-6z"/>
<path d="M13418 3970 c-69 -20 -136 -107 -174 -225 -22 -65 -26 -99 -27 -185
0 -215 76 -320 231 -320 59 0 65 2 106 40 81 75 166 280 116 280 -6 0 -23 -29
-39 -64 -41 -91 -83 -149 -124 -171 -33 -18 -37 -18 -61 -2 -14 10 -35 35 -45
56 l-20 39 65 73 c87 99 127 182 132 272 6 100 -12 174 -46 191 -38 19 -82 25
-114 16z m76 -156 c14 -69 -38 -222 -102 -303 l-20 -24 -7 32 c-16 75 16 215
67 289 35 51 54 53 62 6z"/>
<path d="M9058 3829 c-166 -87 -461 -504 -557 -786 -35 -104 -36 -133 -7 -172
14 -19 26 -41 26 -48 0 -24 16 -14 32 20 44 93 275 340 387 415 92 61 105 42
45 -66 -86 -158 -248 -317 -402 -396 -28 -14 -31 -20 -21 -32 43 -52 125 -57
213 -14 75 37 140 92 221 187 112 131 162 256 135 337 -16 50 -64 96 -100 96
-57 0 -183 -81 -297 -192 -35 -33 -63 -56 -63 -51 0 13 90 160 147 241 74 104
227 252 327 317 l89 58 -56 54 c-30 29 -61 53 -69 53 -7 -1 -30 -10 -50 -21z"/>
<path d="M10105 3598 c-11 -10 -56 -42 -99 -70 -93 -61 -232 -195 -338 -329
-72 -91 -79 -96 -121 -102 -47 -7 -97 -26 -97 -37 0 -4 23 -10 51 -14 l51 -7
-18 -27 c-61 -92 -163 -279 -178 -326 -17 -52 -17 -58 -2 -81 9 -14 34 -34 56
-45 47 -24 50 -24 50 -6 0 66 130 379 188 454 l18 23 133 -16 c74 -8 137 -18
141 -20 4 -3 1 -35 -7 -72 -7 -38 -20 -131 -28 -207 -18 -162 -17 -162 72
-196 92 -34 89 -37 96 98 15 265 99 614 199 820 48 98 47 99 -57 149 -79 38
-83 38 -110 11z m-35 -167 c0 -5 -18 -65 -39 -134 -21 -69 -42 -139 -46 -156
l-7 -31 -130 0 c-103 0 -128 3 -121 13 61 81 143 174 189 217 87 79 154 119
154 91z"/>
<path d="M8130 3522 c-106 -63 -257 -239 -321 -376 -29 -62 -31 -71 -20 -106
13 -43 82 -110 113 -110 26 0 69 23 141 77 99 72 96 72 90 8 -4 -33 -1 -66 7
-84 12 -30 93 -101 114 -101 7 0 11 22 11 58 0 99 40 168 198 346 114 128 116
135 62 170 -55 36 -71 37 -113 6 -22 -16 -68 -61 -103 -102 -80 -93 -334 -298
-370 -298 -37 0 45 140 162 276 45 52 89 100 98 107 10 6 37 29 61 49 43 38
43 38 24 59 -10 12 -35 29 -55 40 l-36 18 -63 -37z"/>
<path d="M11170 3498 c-12 -13 -45 -70 -73 -128 -28 -58 -51 -106 -52 -107 -1
-2 -29 -6 -63 -9 -66 -7 -70 -12 -52 -59 9 -24 15 -27 46 -23 42 5 42 16 0
-167 -14 -60 -28 -150 -32 -200 -5 -79 -3 -94 14 -121 26 -41 116 -84 176 -84
40 0 50 6 100 51 31 28 56 57 56 65 0 19 -7 18 -40 -6 -38 -27 -107 -51 -126
-43 -57 22 -37 232 43 460 23 65 28 72 57 78 77 16 127 37 124 53 -3 14 -15
17 -61 15 -31 -1 -57 0 -57 3 0 8 62 127 87 166 l24 39 -33 13 c-18 7 -52 16
-75 20 -36 5 -45 3 -63 -16z"/>
<path d="M11593 3380 c-118 -53 -228 -246 -240 -420 -12 -165 69 -290 187
-290 54 0 141 56 209 134 81 93 114 188 113 321 0 135 -30 195 -95 195 -14 0
-41 15 -62 34 -47 44 -64 48 -112 26z m154 -150 c17 -50 16 -186 -3 -255 -25
-97 -83 -180 -159 -227 -40 -24 -42 -23 -65 15 -62 101 22 373 146 475 47 39
65 38 81 -8z"/>
<path d="M10420 3229 c-82 -84 -189 -345 -198 -479 -4 -66 -2 -78 18 -103 25
-31 61 -51 107 -60 42 -8 67 13 144 119 34 46 64 84 68 84 4 0 7 -18 8 -39 3
-63 28 -99 86 -127 53 -24 97 -31 97 -15 0 5 -7 25 -15 44 -34 82 -17 164 81
388 35 80 64 149 64 152 0 11 -54 34 -94 40 -32 5 -42 2 -57 -16 -26 -29 -64
-104 -90 -174 -33 -88 -232 -373 -260 -373 -45 0 63 316 165 485 l45 75 -22
14 c-12 8 -41 18 -63 22 -40 6 -44 4 -84 -37z"/>
</g>
</svg>
